{"title":"The.Assassination.of.Jesse.James.by.the.Coward.Robert.Ford.2007.","uid":12159553,"size":11935941157,"categoryP":"video","categoryS":"hd___movies","magnet":"?xt=urn:btih:0d34de2bcabe2c6577b62b3757d933bbd433a2ef&amp;dn=The.Assassination.of.Jesse.James.by.the.Coward.Robert.Ford.2007.&amp;tr=udp%3A%2F%2Ftracker.openbittorrent.com%3A80&amp;tr=udp%3A%2F%2Fopen.demonii.com%3A1337&amp;tr=udp%3A%2F%2Ftracker.coppersurfer.tk%3A6969&amp;tr=udp%3A%2F%2Fexodus.desync.com%3A6969","seeders":0,"leechers":3,"uploader":null,"files":3,"time":1437855037,"description":"Video\nID                                       : 1\nFormat                                   : AVC\nFormat/Info                              : Advanced Video Codec\nFormat profile                           : &lt;a class=&quot;__cf_email__&quot; href=&quot;/cdn-cgi/l/email-protection&quot; data-cfemail=&quot;a3ebcac4cbe3ef978d92&quot;&gt;[email&amp;#160;protected]&lt;/a&gt;&lt;script data-cfhash='f9e31' type=&quot;text/javascript&quot;&gt;\n/* &lt;![CDATA[ */!function(){try{var t=&quot;currentScript&quot;in document?document.currentScript:function(){for(var t=document.getElementsByTagName(&quot;script&quot;),e=t.length;e--;)if(t[e].getAttribute(&quot;data-cfhash&quot;))return t[e]}();if(t&amp;&amp;t.previousSibling){var e,r,n,i,c=t.previousSibling,a=c.getAttribute(&quot;data-cfemail&quot;);if(a){for(e=&quot;&quot;,r=parseInt(a.substr(0,2),16),n=2;a.length-n;n+=2)i=parseInt(a.substr(n,2),16)^r,e+=String.fromCharCode(i);e=document.createTextNode(e),c.parentNode.replaceChild(e,c)}t.parentNode.removeChild(t);}}catch(u){}}()/* ]]&gt; */&lt;/script&gt;\nFormat settings, CABAC                   : Yes\nFormat settings, ReFrames                : 5 frames\nCodec ID                                 : V_MPEG4/ISO/AVC\nDuration                                 : 2h 39mn\nBit rate                                 : 9 128 Kbps\nWidth                                    : 1 920 pixels\nHeight                                   : 800 pixels\nDisplay aspect ratio                     : 2.40:1\nFrame rate mode                          : Constant\nFrame rate                               : 23.976 fps\nColor space                              : YUV\nChroma subsampling                       : 4:2:0\nBit depth                                : 8 bits\nScan type                                : Progressive\nBits/(Pixel*Frame)                       : 0.248\nStream size                              : 10.2 GiB (92%)\nWriting library                          : x264 core 144 r2525kMod 40bb568\nEncoding settings                        : cabac=1 / ref=5 / deblock=1:-3:-3 / analyse=0x3:0x133 / me=umh / subme=11 / psy=1 / fade_compensate=0.00 / psy_rd=0.90:0.03 / mixed_ref=1 / me_range=32 / chroma_me=1 / trellis=2 / 8x8dct=1 / cqm=0 / deadzone=21,11 / fast_pskip=0 / chroma_qp_offset=-3 / threads=6 / lookahead_threads=1 / sliced_threads=0 / nr=0 / decimate=1 / interlaced=0 / bluray_compat=0 / constrained_intra=0 / fgo=0 / bframes=12 / b_pyramid=2 / b_adapt=2 / b_bias=0 / direct=1 / weightb=1 / open_gop=0 / weightp=2 / keyint=250 / keyint_min=23 / scenecut=40 / intra_refresh=0 / rc_lookahead=40 / rc=crf / mbtree=0 / crf=18.5000 / qcomp=0.65 / qpmin=0 / qpmax=69 / qpstep=4 / vbv_maxrate=50000 / vbv_bufsize=62500 / crf_max=0.0 / nal_hrd=none / filler=0 / ip_ratio=1.40 / pb_ratio=1.30 / aq=3:0.75\nLanguage                                 : English\nDefault                                  : Yes\nForced                                   : No\nColor range                              : Limited\nMatrix coefficients                      : BT.709\n\nAudio\nID                                       : 2\nFormat                                   : AC-3\nFormat/Info                              : Audio Coding 3\nMode extension                           : CM (complete main)\nFormat settings, Endianness              : Big\nCodec ID                                 : A_AC3\nDuration                                 : 2h 39mn\nBit rate mode                            : Constant\nBit rate                                 : 640 Kbps\nChannel(s)                               : 6 channels\nChannel positions                        : Front: L C R, Side: L R, LFE\nSampling rate                            : 48.0 KHz\nCompression mode                         : Lossy\nStream size                              : 731 MiB (6%)\nLanguage                                 : English\nDefault                                  : Yes\nForced                                   : No\n\nText\nID                                       : 3\nFormat                                   : UTF-8\nCodec ID                                 : S_TEXT/UTF8\nCodec ID/Info                            : UTF-8 Plain Text\nLanguage                                 : English\nDefault                                  : No\nForced                                   : No\n\nMenu\n00:00:00.000                             : enrologue Portrait\n00:03:26.372                             : en:Appetite for Greater Things\n00:09:39.412                             : en:Call Me Gregarious\n00:12:54.273                             : enetty Thieves and Rubes\n00:16:50.676                             : en:Blue Cut Robbery\n00:21:56.481                             : en:No More Shenanigans\n00:25:57.222                             : en:Cigars and Lies\n00:28:26.705                             : en:Names of Enemies\n00:33:44.355                             : en:Sent Home\n00:36:59.050                             : en:Threats and Mysteries\n00:42:57.575                             : en:My Daddy's Wife\n00:48:59.937                             : en:Jesse Stops By\n00:55:33.330                             : en:Where's Jim?\n01:02:55.772                             : en:Shootin' Scrape\n01:08:46.956                             : en:Snow Grave\n01:11:10.266                             : en:Overlapping Stories\n01:17:33.315                             : en:Acting Testy\n01:21:29.885                             : en:Catch-Up With Miller\n01:27:07.555                             : en:No Peace When He's Around\n01:30:03.398                             : en:Craig Rifles Ball\n01:34:19.153                             : en:Cup of Iniquity\n01:36:41.462                             : en:Other Side of the Ice\n01:40:16.176                             : en:You've Been Chosen\n01:44:59.459                             : en:Just a Human Beings\n01:48:29.336                             : en:Creep up From Behind\n01:53:25.632                             : en:By Way of Apology\n01:59:24.490                             : en:Imagining Himself\n02:02:53.366                             : en:April 3rd, 1882\n02:06:29.915                             : en:News Report\n02:09:18.250                             : en:Assassination\n02:15:01.760                             : en:Final Shots\n02:17:02.214                             : en:Stage Portrayal\n02:21:05.957                             : en:Charlie's Final Curtain\n02:22:30.041                             : en:I'm Robert Ford\n02:26:15.433                             : en:No Applause\n02:30:05.663                             : en:No Eulogies\n02:32:21.132                             : en:End Credits","torrent":{"xt":"urn:btih:0d34de2bcabe2c6577b62b3757d933bbd433a2ef","amp;dn":"The.Assassination.of.Jesse.James.by.the.Coward.Robert.Ford.2007.","amp;tr":["udp%3A%2F%2Ftracker.openbittorrent.com%3A80","udp%3A%2F%2Fopen.demonii.com%3A1337","udp%3A%2F%2Ftracker.coppersurfer.tk%3A6969","udp%3A%2F%2Fexodus.desync.com%3A6969"],"infoHash":"0d34de2bcabe2c6577b62b3757d933bbd433a2ef","infoHashBuffer":{"type":"Buffer","data":[13,52,222,43,202,190,44,101,119,182,43,55,87,217,51,187,212,51,162,239]},"announce":[],"urlList":[]}}